<svg preserveAspectRatio="none" width="100%" height="100%" overflow="visible" style="display: block;" viewBox="0 0 97.4821 72.5759" fill="none" xmlns="http://www.w3.org/2000/svg">
<g id="Ellipse 30" filter="url(#filter0_d_0_13)">
<path d="M15.1059 21.0783C15.1059 17.6607 17.8803 14.8661 21.2883 15.1222C33.0377 16.005 44.4872 19.3966 54.8543 25.0959C65.2213 30.7952 74.2198 38.6451 81.2609 48.0924C83.3032 50.8326 82.4302 54.6726 79.5446 56.5038V56.5038C76.6591 58.3351 72.8564 57.4606 70.778 54.7476C64.8789 47.0474 57.4316 40.6359 48.892 35.9412C40.3524 31.2465 30.9486 28.394 21.2861 27.5392C17.8818 27.2381 15.1059 24.4959 15.1059 21.0783V21.0783Z" fill="url(#paint0_linear_0_13)"/>
</g>
<defs>
<filter id="filter0_d_0_13" x="-9.53674e-07" y="-5.96046e-08" width="97.4821" height="72.5759" filterUnits="userSpaceOnUse" color-interpolation-filters="sRGB">
<feFlood flood-opacity="0" result="BackgroundImageFix"/>
<feColorMatrix in="SourceAlpha" type="matrix" values="0 0 0 0 0 0 0 0 0 0 0 0 0 0 0 0 0 0 127 0" result="hardAlpha"/>
<feOffset/>
<feGaussianBlur stdDeviation="7.55294"/>
<feComposite in2="hardAlpha" operator="out"/>
<feColorMatrix type="matrix" values="0 0 0 0 0 0 0 0 0 0.839216 0 0 0 0 0.462745 0 0 0 0.4 0"/>
<feBlend mode="normal" in2="BackgroundImageFix" result="effect1_dropShadow_0_13"/>
<feBlend mode="normal" in="SourceGraphic" in2="effect1_dropShadow_0_13" result="shape"/>
</filter>
<linearGradient id="paint0_linear_0_13" x1="74.6263" y1="51.013" x2="42.6084" y2="25.1524" gradientUnits="userSpaceOnUse">
<stop stop-color="#2EFC9E"/>
<stop offset="1" stop-color="#00D676"/>
</linearGradient>
</defs>
</svg>
